<mxfile host="app.diagrams.net" modified="2023-10-24T13:47:35.582Z" agent="Mozilla/5.0 (Macintosh; Intel Mac OS X 10_15_7) AppleWebKit/537.36 (KHTML, like Gecko) Chrome/116.0.0.0 Safari/537.36" version="21.7.5" etag="c4b_R9gVfRVa0G4HABnY" type="github">
  <diagram name="第 1 页" id="ZfZiUJ723lJmLiegwUgN">
    <mxGraphModel>
      <root>
        <mxCell id="0" />
        <mxCell id="1" parent="0" />
      </root>
    </mxGraphModel>
  </diagram>
</mxfile>
